<?xml version="1.0" standalone="no"?>
<!DOCTYPE svg PUBLIC "-//W3C//DTD SVG 20010904//EN"
 "http://www.w3.org/TR/2001/REC-SVG-20010904/DTD/svg10.dtd">
<svg version="1.0" xmlns="http://www.w3.org/2000/svg"
 width="120.000000pt" height="120.000000pt" viewBox="0 0 120.000000 120.000000"
 preserveAspectRatio="xMidYMid meet">

<g transform="translate(0.000000,120.000000) scale(0.100000,-0.100000)"
fill="#000000" stroke="none">
<path d="M290 901 c-40 -5 -45 -9 -48 -33 -2 -20 1 -28 12 -28 11 0 16 -9 16
-29 0 -16 3 -36 6 -44 6 -15 -30 -37 -86 -52 -14 -4 -34 -18 -46 -31 -12 -13
-24 -21 -28 -17 -3 3 -6 -5 -6 -18 0 -28 21 -79 33 -79 4 0 7 -9 7 -20 0 -12
15 -29 40 -45 22 -14 40 -29 40 -34 0 -5 -13 -15 -30 -23 -17 -7 -30 -16 -30
-19 0 -9 24 -28 62 -48 18 -10 47 -25 63 -34 44 -23 101 -47 114 -47 6 0 11
-4 11 -10 0 -5 23 -12 50 -16 28 -4 50 -10 50 -14 0 -4 21 -10 48 -14 26 -3
72 -11 102 -17 30 -6 107 -13 172 -16 117 -5 158 3 158 30 0 17 -34 45 -65 53
-14 3 -28 10 -31 15 -3 5 -23 9 -45 9 -52 0 -42 16 16 24 25 4 51 14 59 22 8
8 19 14 23 14 26 0 93 98 75 109 -5 3 -13 21 -17 38 -7 33 -21 50 -32 39 -3
-3 2 -17 11 -30 21 -33 20 -56 -2 -56 -10 0 -24 -6 -31 -12 -11 -10 -14 -10
-18 0 -6 15 -30 16 -35 1 -3 -8 -17 -9 -50 -2 -29 7 -52 7 -63 1 -12 -7 -23
-4 -41 13 -19 18 -26 20 -39 9 -9 -7 -15 -8 -15 -2 0 6 6 12 13 15 6 2 9 8 4
12 -4 5 -13 1 -20 -9 -12 -16 -15 -16 -62 4 -27 12 -53 26 -56 32 -12 19 -42
0 -36 -23 5 -18 2 -20 -21 -14 -35 9 -52 23 -52 46 0 13 -7 17 -29 17 -17 -1
-41 6 -54 15 -13 8 -34 17 -47 19 -23 3 -23 4 -6 21 10 9 13 17 7 17 -5 0 -17
-7 -25 -16 -16 -16 -41 -10 -31 7 6 9 -8 13 -34 9 -21 -2 -4 51 22 72 21 16
22 16 26 0 5 -26 21 -32 89 -32 65 0 122 20 122 43 0 9 2 9 8 0 13 -20 109
-34 210 -31 79 3 90 5 75 16 -17 13 -17 14 0 26 9 7 17 18 17 25 0 6 5 11 10
11 6 0 10 16 10 35 0 19 5 35 10 35 6 0 10 13 10 29 0 26 -3 29 -46 35 -78 10
-158 7 -188 -9 -37 -20 -123 -20 -142 0 -16 16 -102 18 -194 6z m-10 -21 c0
-5 -4 -10 -10 -10 -5 0 -10 5 -10 10 0 6 5 10 10 10 6 0 10 -4 10 -10z m570 0
c0 -5 -7 -10 -15 -10 -8 0 -15 5 -15 10 0 6 7 10 15 10 8 0 15 -4 15 -10z
m-393 -15 c24 -12 32 -23 35 -50 4 -33 -12 -53 -32 -40 -4 3 -6 -4 -3 -15 4
-14 0 -20 -11 -20 -9 0 -16 -4 -16 -10 0 -5 -18 -10 -40 -10 -36 0 -40 2 -40
26 0 20 -4 25 -17 20 -20 -8 -33 10 -33 46 0 20 7 28 30 37 35 12 60 5 60 -15
0 -8 9 -14 20 -14 26 0 25 18 -2 41 -20 18 -21 19 -1 19 11 0 34 -7 50 -15z
m276 -10 c-10 -13 -21 -25 -25 -25 -5 0 -8 -7 -8 -15 0 -23 22 -18 45 11 29
36 65 26 65 -17 0 -16 -4 -29 -10 -29 -5 0 -10 -6 -10 -14 0 -8 -10 -18 -22
-22 -13 -4 -26 -12 -30 -18 -5 -8 -11 -7 -20 2 -6 6 -23 11 -37 11 -25 -1 -24
-2 4 -9 l30 -8 -32 -1 c-25 -1 -33 3 -33 17 0 10 -9 24 -20 32 -13 9 -20 26
-20 47 0 29 4 34 30 40 17 3 30 9 30 14 0 5 18 9 40 9 l41 0 -18 -25z m-148
-55 c0 -32 -2 -35 -30 -35 -24 0 -31 5 -33 23 -6 38 5 54 35 50 25 -3 28 -7
28 -38z m14 -59 c8 -5 -5 -7 -35 -4 -27 3 -51 7 -53 9 -9 8 75 3 88 -5z"/>
<path d="M378 773 c12 -2 32 -2 45 0 12 2 2 4 -23 4 -25 0 -35 -2 -22 -4z"/>
<path d="M270 680 c0 -5 5 -10 10 -10 6 0 10 5 10 10 0 6 -4 10 -10 10 -5 0
-10 -4 -10 -10z"/>
<path d="M472 638 c3 -7 15 -15 27 -16 16 -3 22 1 19 10 -3 7 -15 15 -27 16
-16 3 -22 -1 -19 -10z"/>
<path d="M895 640 c27 -12 43 -12 25 0 -8 5 -22 9 -30 9 -10 0 -8 -3 5 -9z"/>
<path d="M590 636 c0 -2 9 -6 20 -9 11 -3 18 -1 14 4 -5 9 -34 13 -34 5z"/>
<path d="M414 615 c-19 -14 -18 -14 4 -15 13 0 22 6 22 15 0 19 -1 19 -26 0z"/>
<path d="M745 610 c-3 -5 1 -10 9 -10 9 0 16 5 16 10 0 6 -4 10 -9 10 -6 0
-13 -4 -16 -10z"/>
<path d="M937 609 c7 -7 15 -10 18 -7 3 3 -2 9 -12 12 -14 6 -15 5 -6 -5z"/>
<path d="M870 600 c0 -5 5 -10 10 -10 6 0 10 5 10 10 0 6 -4 10 -10 10 -5 0
-10 -4 -10 -10z"/>
<path d="M768 533 c6 -2 18 -2 25 0 6 3 1 5 -13 5 -14 0 -19 -2 -12 -5z"/>
<path d="M795 510 c-4 -6 5 -10 19 -10 14 0 26 5 26 10 0 6 -9 10 -19 10 -11
0 -23 -4 -26 -10z"/>
</g>
</svg>
